<svg width="352" height="352" viewBox="0 0 352 352" fill="none" xmlns="http://www.w3.org/2000/svg">
<g clip-path="url(#clip0_302_880)">
<path d="M75.4044 276.944C71.3212 276.944 68.1567 275.821 65.911 273.575C63.8694 271.125 62.8486 267.859 62.8486 263.775V71.7629C62.8486 67.4755 63.9714 64.311 66.2172 62.2694C68.463 60.0237 71.6274 58.9008 75.7106 58.9008H148.29C171.36 58.9008 189.122 64.6173 201.575 76.0502C214.029 87.279 220.256 103.204 220.256 123.824C220.256 144.24 214.029 160.164 201.575 171.597C189.122 183.03 171.36 188.747 148.29 188.747H87.9603V263.775C87.9603 267.859 86.9395 271.125 84.8978 273.575C82.8562 275.821 79.6918 276.944 75.4044 276.944ZM87.9603 167.616H145.227C161.764 167.616 174.218 163.941 182.588 156.591C191.163 149.037 195.45 138.115 195.45 123.824C195.45 109.328 191.163 98.4057 182.588 91.056C174.218 83.5021 161.764 79.7251 145.227 79.7251H87.9603V167.616Z" fill="#161616"/>
<path fill-rule="evenodd" clip-rule="evenodd" d="M216.126 226.614H271.332L291.211 272.55C292.64 276.225 294.477 279.083 296.723 281.125C298.969 282.962 301.929 283.881 305.604 283.881C308.871 283.881 311.423 283.166 313.26 281.737C315.098 280.308 316.118 278.266 316.323 275.612C316.731 272.958 316.118 269.998 314.485 266.731L229.963 75.0252C228.33 70.942 226.186 68.0838 223.532 66.4505C221.314 64.7872 218.845 63.8767 216.126 63.7191V96.5463L262.402 205.483H216.126V226.614Z" fill="#161616"/>
<path d="M80.68 328.14C80.3467 328.14 80.0867 328.047 79.9 327.86C79.7267 327.673 79.64 327.413 79.64 327.08V314.96C79.64 314.613 79.7333 314.353 79.92 314.18C80.1067 313.993 80.3667 313.9 80.7 313.9H85.48C87 313.9 88.1733 314.28 89 315.04C89.8267 315.787 90.24 316.84 90.24 318.2C90.24 319.573 89.8267 320.64 89 321.4C88.1733 322.147 87 322.52 85.48 322.52H81.72V327.08C81.72 327.413 81.6333 327.673 81.46 327.86C81.2867 328.047 81.0267 328.14 80.68 328.14ZM81.72 320.86H85.18C86.18 320.86 86.9333 320.64 87.44 320.2C87.96 319.747 88.22 319.08 88.22 318.2C88.22 317.333 87.96 316.68 87.44 316.24C86.9333 315.787 86.18 315.56 85.18 315.56H81.72V320.86ZM96.792 328C96.432 328 96.152 327.907 95.952 327.72C95.7654 327.52 95.672 327.24 95.672 326.88V315.02C95.672 314.66 95.7654 314.387 95.952 314.2C96.152 314 96.432 313.9 96.792 313.9H104.092C104.372 313.9 104.585 313.973 104.732 314.12C104.879 314.253 104.952 314.453 104.952 314.72C104.952 315 104.879 315.213 104.732 315.36C104.585 315.507 104.372 315.58 104.092 315.58H97.672V320H103.652C103.945 320 104.159 320.073 104.292 320.22C104.439 320.367 104.512 320.573 104.512 320.84C104.512 321.12 104.439 321.333 104.292 321.48C104.159 321.613 103.945 321.68 103.652 321.68H97.672V326.32H104.092C104.372 326.32 104.585 326.393 104.732 326.54C104.879 326.687 104.952 326.893 104.952 327.16C104.952 327.44 104.879 327.653 104.732 327.8C104.585 327.933 104.372 328 104.092 328H96.792ZM110.296 328.14C110.029 328.14 109.816 328.08 109.656 327.96C109.496 327.84 109.403 327.68 109.376 327.48C109.349 327.28 109.389 327.053 109.496 326.8L114.916 314.64C115.049 314.32 115.216 314.093 115.416 313.96C115.629 313.827 115.863 313.76 116.116 313.76C116.356 313.76 116.576 313.827 116.776 313.96C116.989 314.093 117.163 314.32 117.296 314.64L122.716 326.8C122.836 327.053 122.883 327.287 122.856 327.5C122.829 327.7 122.743 327.86 122.596 327.98C122.449 328.087 122.243 328.14 121.976 328.14C121.683 328.14 121.449 328.067 121.276 327.92C121.103 327.773 120.949 327.547 120.816 327.24L119.416 324L120.356 324.56H111.836L112.756 324L111.376 327.24C111.243 327.56 111.096 327.793 110.936 327.94C110.776 328.073 110.563 328.14 110.296 328.14ZM116.076 316.2L113.056 323.36L112.556 322.88H119.616L119.156 323.36L116.116 316.2H116.076ZM129.342 328.14C129.009 328.14 128.749 328.047 128.562 327.86C128.389 327.673 128.302 327.413 128.302 327.08V314.96C128.302 314.613 128.396 314.353 128.582 314.18C128.769 313.993 129.029 313.9 129.362 313.9H134.142C135.662 313.9 136.836 314.26 137.662 314.98C138.489 315.7 138.902 316.72 138.902 318.04C138.902 318.893 138.716 319.627 138.342 320.24C137.969 320.853 137.422 321.32 136.702 321.64C135.996 321.96 135.142 322.12 134.142 322.12L134.322 321.84H134.842C135.376 321.84 135.836 321.973 136.222 322.24C136.622 322.507 136.982 322.933 137.302 323.52L139.022 326.72C139.156 326.96 139.216 327.193 139.202 327.42C139.202 327.633 139.122 327.807 138.962 327.94C138.816 328.073 138.602 328.14 138.322 328.14C138.029 328.14 137.789 328.08 137.602 327.96C137.429 327.827 137.269 327.633 137.122 327.38L135.022 323.5C134.742 322.98 134.422 322.633 134.062 322.46C133.702 322.273 133.229 322.18 132.642 322.18H130.382V327.08C130.382 327.413 130.296 327.673 130.122 327.86C129.949 328.047 129.689 328.14 129.342 328.14ZM130.382 320.62H133.802C134.816 320.62 135.582 320.407 136.102 319.98C136.622 319.553 136.882 318.92 136.882 318.08C136.882 317.253 136.622 316.627 136.102 316.2C135.582 315.773 134.816 315.56 133.802 315.56H130.382V320.62ZM146.098 328C145.764 328 145.504 327.907 145.318 327.72C145.131 327.533 145.038 327.273 145.038 326.94V314.88C145.038 314.533 145.124 314.273 145.298 314.1C145.484 313.913 145.744 313.82 146.078 313.82C146.411 313.82 146.664 313.913 146.838 314.1C147.024 314.273 147.118 314.533 147.118 314.88V326.22H153.318C153.611 326.22 153.838 326.3 153.998 326.46C154.158 326.607 154.238 326.82 154.238 327.1C154.238 327.38 154.158 327.6 153.998 327.76C153.838 327.92 153.611 328 153.318 328H146.098ZM167.666 328.14C167.4 328.14 167.186 328.08 167.026 327.96C166.866 327.84 166.773 327.68 166.746 327.48C166.72 327.28 166.76 327.053 166.866 326.8L172.286 314.64C172.42 314.32 172.586 314.093 172.786 313.96C173 313.827 173.233 313.76 173.486 313.76C173.726 313.76 173.946 313.827 174.146 313.96C174.36 314.093 174.533 314.32 174.666 314.64L180.086 326.8C180.206 327.053 180.253 327.287 180.226 327.5C180.2 327.7 180.113 327.86 179.966 327.98C179.82 328.087 179.613 328.14 179.346 328.14C179.053 328.14 178.82 328.067 178.646 327.92C178.473 327.773 178.32 327.547 178.186 327.24L176.786 324L177.726 324.56H169.206L170.126 324L168.746 327.24C168.613 327.56 168.466 327.793 168.306 327.94C168.146 328.073 167.933 328.14 167.666 328.14ZM173.446 316.2L170.426 323.36L169.926 322.88H176.986L176.526 323.36L173.486 316.2H173.446ZM186.793 328C186.433 328 186.153 327.907 185.953 327.72C185.766 327.52 185.673 327.24 185.673 326.88V315.02C185.673 314.66 185.766 314.387 185.953 314.2C186.153 314 186.433 313.9 186.793 313.9H190.653C192.973 313.9 194.759 314.507 196.013 315.72C197.279 316.92 197.913 318.66 197.913 320.94C197.913 322.073 197.753 323.08 197.433 323.96C197.113 324.84 196.639 325.58 196.013 326.18C195.399 326.767 194.646 327.22 193.753 327.54C192.859 327.847 191.826 328 190.653 328H186.793ZM187.753 326.26H190.533C191.413 326.26 192.173 326.153 192.813 325.94C193.466 325.713 194.013 325.38 194.453 324.94C194.893 324.5 195.219 323.947 195.433 323.28C195.646 322.613 195.753 321.833 195.753 320.94C195.753 319.167 195.313 317.84 194.433 316.96C193.566 316.08 192.266 315.64 190.533 315.64H187.753V326.26ZM203.859 328C203.593 328 203.373 327.947 203.199 327.84C203.039 327.733 202.926 327.587 202.859 327.4C202.806 327.2 202.806 326.987 202.859 326.76C202.926 326.52 203.053 326.273 203.239 326.02L211.239 314.94V315.64H203.699C203.393 315.64 203.159 315.567 202.999 315.42C202.839 315.26 202.759 315.04 202.759 314.76C202.759 314.48 202.839 314.267 202.999 314.12C203.159 313.973 203.393 313.9 203.699 313.9H212.199C212.466 313.9 212.686 313.953 212.859 314.06C213.033 314.167 213.146 314.313 213.199 314.5C213.266 314.687 213.266 314.9 213.199 315.14C213.146 315.38 213.026 315.627 212.839 315.88L204.819 326.96V326.26H212.659C212.966 326.26 213.199 326.333 213.359 326.48C213.519 326.627 213.599 326.84 213.599 327.12C213.599 327.4 213.519 327.62 213.359 327.78C213.199 327.927 212.966 328 212.659 328H203.859ZM224.54 328.18C223.207 328.18 222.04 327.887 221.04 327.3C220.054 326.7 219.287 325.86 218.74 324.78C218.207 323.687 217.94 322.407 217.94 320.94C217.94 319.833 218.094 318.84 218.4 317.96C218.707 317.067 219.147 316.307 219.72 315.68C220.294 315.04 220.987 314.553 221.8 314.22C222.614 313.887 223.527 313.72 224.54 313.72C225.887 313.72 227.054 314.013 228.04 314.6C229.027 315.187 229.787 316.02 230.32 317.1C230.867 318.18 231.14 319.453 231.14 320.92C231.14 322.027 230.987 323.027 230.68 323.92C230.374 324.813 229.927 325.58 229.34 326.22C228.767 326.86 228.074 327.347 227.26 327.68C226.447 328.013 225.54 328.18 224.54 328.18ZM224.54 326.38C225.474 326.38 226.267 326.167 226.92 325.74C227.587 325.313 228.094 324.693 228.44 323.88C228.8 323.067 228.98 322.087 228.98 320.94C228.98 319.22 228.594 317.887 227.82 316.94C227.047 315.993 225.954 315.52 224.54 315.52C223.607 315.52 222.807 315.733 222.14 316.16C221.487 316.573 220.98 317.187 220.62 318C220.274 318.813 220.1 319.793 220.1 320.94C220.1 322.647 220.487 323.98 221.26 324.94C222.047 325.9 223.14 326.38 224.54 326.38ZM238.168 328.14C237.835 328.14 237.575 328.047 237.388 327.86C237.215 327.673 237.128 327.413 237.128 327.08V314.8C237.128 314.453 237.215 314.193 237.388 314.02C237.575 313.847 237.835 313.76 238.168 313.76C238.502 313.76 238.755 313.847 238.928 314.02C239.115 314.193 239.208 314.453 239.208 314.8V320.24H239.248L245.388 314.3C245.588 314.113 245.775 313.98 245.948 313.9C246.135 313.807 246.342 313.76 246.568 313.76C246.875 313.76 247.095 313.84 247.228 314C247.375 314.147 247.435 314.327 247.408 314.54C247.382 314.753 247.268 314.96 247.068 315.16L240.688 321.24L240.728 320.22L247.368 326.62C247.608 326.847 247.735 327.08 247.748 327.32C247.762 327.56 247.688 327.76 247.528 327.92C247.368 328.067 247.142 328.14 246.848 328.14C246.582 328.14 246.368 328.087 246.208 327.98C246.048 327.873 245.862 327.72 245.648 327.52L239.248 321.42H239.208V327.08C239.208 327.413 239.122 327.673 238.948 327.86C238.775 328.047 238.515 328.14 238.168 328.14ZM258.714 328.18C257.381 328.18 256.214 327.887 255.214 327.3C254.227 326.7 253.461 325.86 252.914 324.78C252.381 323.687 252.114 322.407 252.114 320.94C252.114 319.833 252.267 318.84 252.574 317.96C252.881 317.067 253.321 316.307 253.894 315.68C254.467 315.04 255.161 314.553 255.974 314.22C256.787 313.887 257.701 313.72 258.714 313.72C260.061 313.72 261.227 314.013 262.214 314.6C263.201 315.187 263.961 316.02 264.494 317.1C265.041 318.18 265.314 319.453 265.314 320.92C265.314 322.027 265.161 323.027 264.854 323.92C264.547 324.813 264.101 325.58 263.514 326.22C262.941 326.86 262.247 327.347 261.434 327.68C260.621 328.013 259.714 328.18 258.714 328.18ZM258.714 326.38C259.647 326.38 260.441 326.167 261.094 325.74C261.761 325.313 262.267 324.693 262.614 323.88C262.974 323.067 263.154 322.087 263.154 320.94C263.154 319.22 262.767 317.887 261.994 316.94C261.221 315.993 260.127 315.52 258.714 315.52C257.781 315.52 256.981 315.733 256.314 316.16C255.661 316.573 255.154 317.187 254.794 318C254.447 318.813 254.274 319.793 254.274 320.94C254.274 322.647 254.661 323.98 255.434 324.94C256.221 325.9 257.314 326.38 258.714 326.38Z" fill="#161616"/>
</g>
<defs>
<clipPath id="clip0_302_880">
<rect width="352" height="352" fill="white"/>
</clipPath>
</defs>
</svg>
